<svg xmlns="http://www.w3.org/2000/svg"  viewBox="0 0 64 64" width="256px" height="256px"><linearGradient id="8i95Y3ttnm5UvyM6efIKMa" x1="37.857" x2="37.857" y1="22.319" y2="49.813" gradientUnits="userSpaceOnUse"><stop offset="0" stop-color="#6dc7ff"/><stop offset="1" stop-color="#e6abff"/></linearGradient><path fill="url(#8i95Y3ttnm5UvyM6efIKMa)" d="M37.921,48c-7.168,0-13-5.832-13-13s5.832-13,13-13c0.76,0,1.506,0.063,2.238,0.189 c-0.798,1.452-1.238,3.102-1.238,4.811c0,5.514,4.486,10,10,10c0.633,0,1.26-0.06,1.873-0.177C49.904,43.131,44.471,48,37.921,48z"/><linearGradient id="8i95Y3ttnm5UvyM6efIKMb" x1="32" x2="32" y1="6.319" y2="57.916" gradientUnits="userSpaceOnUse"><stop offset="0" stop-color="#1a6dff"/><stop offset="1" stop-color="#c822ff"/></linearGradient><path fill="url(#8i95Y3ttnm5UvyM6efIKMb)" d="M57.005,22.204C52.998,12.36,43.544,6,32.921,6c-14.336,0-26,11.663-26,26s11.664,26,26,26 c0.893,0,1.8-0.047,2.695-0.139c0.509-0.053,0.896-0.48,0.897-0.992s-0.383-0.941-0.892-0.997 C24.96,54.712,16.921,45.738,16.921,35c0-11.579,9.42-21,21-21c6.929,0,13.409,3.419,17.333,9.146 c0.289,0.421,0.849,0.555,1.298,0.315C57.003,23.22,57.198,22.677,57.005,22.204z M37.921,12c-12.682,0-23,10.317-23,23 c0,8.713,4.833,16.364,12.086,20.263C16.624,52.622,8.921,43.193,8.921,32c0-13.233,10.766-24,24-24 c6.954,0,13.364,2.952,17.825,7.91C47.004,13.396,42.554,12,37.921,12z"/><linearGradient id="8i95Y3ttnm5UvyM6efIKMc" x1="37.921" x2="37.921" y1="6.319" y2="57.916" gradientUnits="userSpaceOnUse"><stop offset="0" stop-color="#1a6dff"/><stop offset="1" stop-color="#c822ff"/></linearGradient><path fill="url(#8i95Y3ttnm5UvyM6efIKMc)" d="M53.829,32.171c-0.613-0.322-1.336-0.309-1.939,0.037c-1.284,0.739-2.751,0.968-4.244,0.66 c0,0,0,0,0,0c-2.357-0.484-4.268-2.491-4.646-4.881c-0.322-2.029,0.383-4.056,1.885-5.422c0.517-0.47,0.752-1.158,0.631-1.843 c-0.118-0.665-0.56-1.215-1.183-1.469c-2.22-0.905-4.571-1.33-6.99-1.244c-8.793,0.293-15.999,7.402-16.404,16.186 c-0.217,4.697,1.447,9.152,4.685,12.543C28.864,50.132,33.231,52,37.921,52c9.374,0,17-7.626,17-17 c0-0.423-0.018-0.841-0.051-1.255C54.816,33.074,54.427,32.485,53.829,32.171z M37.921,50c-4.138,0-7.992-1.648-10.851-4.643 c-2.857-2.992-4.325-6.924-4.133-11.07c0.357-7.748,6.714-14.021,14.472-14.279C37.582,20.003,37.753,20,37.924,20 c1.954,0,3.851,0.369,5.616,1.085c-2.003,1.821-2.943,4.519-2.516,7.215c0.514,3.245,3.013,5.868,6.219,6.527h0 c1.98,0.407,3.929,0.102,5.634-0.922c0.029,0.361,0.044,0.727,0.044,1.095C52.921,43.271,46.192,50,37.921,50z"/><g><linearGradient id="8i95Y3ttnm5UvyM6efIKMd" x1="17.075" x2="17.075" y1="13.638" y2="33.117" gradientUnits="userSpaceOnUse"><stop offset="0" stop-color="#6dc7ff"/><stop offset="1" stop-color="#e6abff"/></linearGradient><path fill="url(#8i95Y3ttnm5UvyM6efIKMd)" d="M13,32h-2c0-7.907,4.277-15.245,11.164-19.15l0.986,1.74C16.889,18.14,13,24.812,13,32z"/></g></svg>